<?xml version="1.0" encoding="UTF-8"?>
<svg id="Idle" xmlns="http://www.w3.org/2000/svg" viewBox="0 0 50 50">
  <defs>
    <style>
      .cls-1 {
        fill: #9600c8;
      }
    </style>
  </defs>
  <g id="Work">
    <path class="cls-1" d="M23.39,4.07l-7.01,7.01-1.77,1.77,1.77,1.77,30.75,30.75c.49,.49,.49,1.28,0,1.77-.32,.32-.69,.37-.88,.37s-.57-.05-.88-.37L14.62,16.38l-1.77-1.77-1.77,1.77-3.08,3.08L3.54,15,12.23,6.3l11.16-2.23M31,0L11,4,0,15l8,8,4.85-4.85,30.75,30.75c.73,.73,1.69,1.1,2.65,1.1s1.92-.37,2.65-1.1c1.46-1.46,1.46-3.84,0-5.3L18.15,12.85,31,0h0Z"/>
  </g>
</svg>