<?xml version="1.0" encoding="UTF-8"?>
<svg id="Idle" xmlns="http://www.w3.org/2000/svg" viewBox="0 0 50 50">
  <defs>
    <style>
      .cls-1 {
        fill: #9600c8;
      }
    </style>
  </defs>
  <g id="Contact">
    <path class="cls-1" d="M42.5,2.5c2.76,0,5,2.24,5,5v12.5c0,15.16-12.34,27.5-27.5,27.5H7.5c-2.76,0-5-2.24-5-5s2.24-5,5-5h5c1.77,0,3.37,.91,4.28,2.44l1.01,1.68,1.88-.58c10.2-3.18,18.19-11.16,21.37-21.37l.58-1.88-1.68-1.01c-1.53-.92-2.44-2.52-2.44-4.28V7.5c0-2.76,2.24-5,5-5m0-2.5c-4.14,0-7.5,3.36-7.5,7.5v5c0,2.73,1.47,5.12,3.65,6.43-2.92,9.39-10.33,16.8-19.72,19.72-1.31-2.18-3.69-3.65-6.43-3.65H7.5c-4.14,0-7.5,3.36-7.5,7.5s3.36,7.5,7.5,7.5h12.5c16.57,0,30-13.43,30-30V7.5c0-4.14-3.36-7.5-7.5-7.5h0Z"/>
  </g>
</svg>