<?xml version="1.0" encoding="UTF-8"?>
<svg id="Hover" xmlns="http://www.w3.org/2000/svg" viewBox="0 0 50 50">
  <defs>
    <style>
      .cls-1 {
        fill: #96c800;
      }
    </style>
  </defs>
  <g id="Referred">
    <g>
      <path class="cls-1" d="M25,2.5c4.14,0,7.5,3.36,7.5,7.5s-3.36,7.5-7.5,7.5-7.5-3.36-7.5-7.5,3.36-7.5,7.5-7.5m0-2.5c-5.52,0-10,4.48-10,10s4.48,10,10,10,10-4.48,10-10S30.52,0,25,0h0Z"/>
      <path class="cls-1" d="M15.5,25.2v22.3H2.5v-7c0-7.7,5.64-14.1,13-15.3m2.5-2.7C8.06,22.5,0,30.56,0,40.5v9.5H18V22.5h0Z"/>
      <path class="cls-1" d="M34.5,25.2c7.36,1.2,13,7.6,13,15.3v7h-13V25.2m-2.5-2.7v27.5h18v-9.5c0-9.94-8.06-18-18-18h0Z"/>
      <g>
        <polygon class="cls-1" points="28.75 22.5 21.25 22.5 22.5 27.5 27.5 27.5 28.75 22.5"/>
        <polygon class="cls-1" points="29.5 50 20.5 50 22.75 29 27.25 29 29.5 50"/>
      </g>
    </g>
  </g>
</svg>