<?xml version="1.0" encoding="UTF-8"?>
<svg id="Idle" xmlns="http://www.w3.org/2000/svg" viewBox="0 0 50 50">
  <defs>
    <style>
      .cls-1 {
        fill: #9600c8;
      }
    </style>
  </defs>
  <g id="Studies">
    <path class="cls-1" d="M25,2.69l18.27,7.31-18.27,7.31L6.73,10,25,2.69m0-2.69L0,10l25,10,25-10L25,0h0Z"/>
    <path class="cls-1" d="M38.5,14.6v11.14c0,2.13-6.04,3.86-13.5,3.86s-13.5-1.73-13.5-3.86V14.6l13.5,5.4,13.5-5.4m2.5-3.69l-3.43,1.37-12.57,5.03-12.57-5.03-3.43-1.37v14.84c0,6.05,13.33,6.36,16,6.36s16-.31,16-6.36V10.91h0Z"/>
    <polygon class="cls-1" points="5.75 43.33 5.75 12.3 3.25 11.3 3.25 43.33 0 50 3.25 50 5.75 50 9 50 5.75 43.33"/>
  </g>
</svg>