<?xml version="1.0" encoding="UTF-8"?>
<svg id="Idle" xmlns="http://www.w3.org/2000/svg" viewBox="0 0 50 50">
  <defs>
    <style>
      .cls-1 {
        fill: #9600c8;
      }
    </style>
  </defs>
  <g id="Folio">
    <path class="cls-1" d="M25,2.5c12.41,0,22.5,10.09,22.5,22.5,0,2.76-2.24,5-5,5h-2.5c-5.51,0-10,4.49-10,10v2.5c0,2.76-2.24,5-5,5-12.41,0-22.5-10.09-22.5-22.5S12.59,2.5,25,2.5m0-2.5C11.19,0,0,11.19,0,25s11.19,25,25,25c4.14,0,7.5-3.36,7.5-7.5v-2.5c0-4.14,3.36-7.5,7.5-7.5h2.5c4.14,0,7.5-3.36,7.5-7.5C50,11.19,38.81,0,25,0h0Z"/>
  </g>
  <g id="Folio-2" data-name="Folio">
    <path class="cls-1" d="M8,28c-2.21,0-4-1.79-4-4s1.79-4,4-4,4,1.79,4,4-1.79,4-4,4Zm1-15c0-2.21,1.79-4,4-4s4,1.79,4,4-1.79,4-4,4-4-1.79-4-4Zm10,32c-3.31,0-6-2.69-6-6s2.69-6,6-6,6,2.69,6,6-2.69,6-6,6ZM25,12c-2.21,0-4-1.79-4-4s1.79-4,4-4,4,1.79,4,4-1.79,4-4,4Zm8,1c0-2.21,1.79-4,4-4s4,1.79,4,4-1.79,4-4,4-4-1.79-4-4Zm9,15c-2.21,0-4-1.79-4-4s1.79-4,4-4,4,1.79,4,4-1.79,4-4,4Z"/>
  </g>
</svg>