<?xml version="1.0" encoding="UTF-8"?>
<svg id="Idle" xmlns="http://www.w3.org/2000/svg" viewBox="0 0 50 50">
  <defs>
    <style>
      .cls-1 {
        fill: #9600c8;
      }
    </style>
  </defs>
  <g id="Introduction">
    <path class="cls-1" d="M25,2.5c4.82,0,8.75,3.93,8.75,8.75s-3.93,8.75-8.75,8.75-8.75-3.93-8.75-8.75S20.18,2.5,25,2.5m0-2.5c-6.21,0-11.25,5.04-11.25,11.25s5.04,11.25,11.25,11.25,11.25-5.04,11.25-11.25S31.21,0,25,0h0Z"/>
    <path class="cls-1" d="M25,27.5c11.56,0,21.11,8.77,22.36,20H2.64c1.25-11.23,10.8-20,22.36-20m0-2.5C11.19,25,0,36.19,0,50H50c0-13.81-11.19-25-25-25h0Z"/>
  </g>
</svg>