<?xml version="1.0" encoding="UTF-8"?>
<svg id="Hover" xmlns="http://www.w3.org/2000/svg" viewBox="0 0 50 50">
  <defs>
    <style>
      .cls-1 {
        fill: #96c800;
      }
    </style>
  </defs>
  <g id="Gallery">
    <path class="cls-1" d="M40,2.5c4.14,0,7.5,3.36,7.5,7.5v30c0,4.14-3.36,7.5-7.5,7.5H10c-4.14,0-7.5-3.36-7.5-7.5V10c0-4.14,3.36-7.5,7.5-7.5h30m0-2.5H10C4.48,0,0,4.48,0,10v30c0,5.52,4.48,10,10,10h30c5.52,0,10-4.48,10-10V10c0-5.52-4.48-10-10-10h0Z"/>
    <path class="cls-1" d="M21,10.5c3.03,0,5.5,2.47,5.5,5.5s-2.47,5.5-5.5,5.5-5.5-2.47-5.5-5.5,2.47-5.5,5.5-5.5m0-2.5c-4.42,0-8,3.58-8,8s3.58,8,8,8,8-3.58,8-8-3.58-8-8-8h0Z"/>
    <path class="cls-1" d="M9.97,28.75l16.5,18.75H10c-4.14,0-7.5-3.36-7.5-7.5v-3.03l7.47-8.22m.03-3.75L0,36v4c0,5.52,4.48,10,10,10h22L10,25h0Z"/>
    <path class="cls-1" d="M40.11,19.83l7.39,8.13v12.03c0,4.14-3.36,7.5-7.5,7.5H10c-4.14,0-7.5-3.36-7.5-7.5v-3.03l7.47-8.22,9.95,11.31,1.95,2.22,1.86-2.29,16.37-20.15m-.11-3.83l-18.2,22.41-11.8-13.41L0,36v4c0,5.52,4.48,10,10,10h30c5.52,0,10-4.48,10-10v-13l-10-11h0Z"/>
  </g>
</svg>