<?xml version="1.0" encoding="UTF-8"?>
<svg id="Idle" xmlns="http://www.w3.org/2000/svg" viewBox="0 0 50 50">
  <defs>
    <style>
      .cls-1 {
        fill: #9600c8;
      }

      .cls-2 {
        fill: none;
        stroke: #9600c8;
        stroke-linecap: round;
        stroke-miterlimit: 10;
        stroke-width: 2.5px;
      }
    </style>
  </defs>
  <g id="Resume">
    <path class="cls-1" d="M28.96,2.5l18.54,18.54v1.46h-12.5c-4.14,0-7.5-3.36-7.5-7.5V2.5h1.46m1.04-2.5h-5V15c0,5.52,4.48,10,10,10h15v-5L30,0h0Z"/>
    <line class="cls-2" x1="7" y1="32" x2="43" y2="32"/>
    <line class="cls-2" x1="7" y1="40" x2="43" y2="40"/>
    <path class="cls-1" d="M28.96,2.5l18.54,18.54v18.96c0,4.14-3.36,7.5-7.5,7.5H10c-4.14,0-7.5-3.36-7.5-7.5V10c0-4.14,3.36-7.5,7.5-7.5H28.96m1.04-2.5H10C4.48,0,0,4.48,0,10v30c0,5.52,4.48,10,10,10h30c5.52,0,10-4.48,10-10V20C42.19,12.19,37.81,7.81,30,0h0Z"/>
    <g>
      <circle class="cls-1" cx="15" cy="10.6" r="3.6"/>
      <path class="cls-1" d="M7,23c0-4.42,3.58-8,8-8s8,3.58,8,8H7Z"/>
    </g>
  </g>
</svg>